<?xml version="1.0" encoding="utf-8"?>
<!-- Generator: Adobe Illustrator 26.0.1, SVG Export Plug-In . SVG Version: 6.00 Build 0)  -->
<svg version="1.1" id="Layer_1" xmlns="http://www.w3.org/2000/svg" xmlns:xlink="http://www.w3.org/1999/xlink" x="0px" y="0px"
	 viewBox="0 0 841.9 595.3" style="enable-background:new 0 0 841.9 595.3;" xml:space="preserve">
<style type="text/css">
	.st0{fill:#8D5EA6;}
	.st1{clip-path:url(#SVGID_00000024720375332019900310000012467491967399167638_);fill:#43B667;}
	.st2{clip-path:url(#SVGID_00000099662100755279169420000000904999548887712440_);fill:#67489D;}
	.st3{clip-path:url(#SVGID_00000099662100755279169420000000904999548887712440_);fill:#7E529E;}
	.st4{fill:#4D4B4D;}
	.st5{clip-path:url(#SVGID_00000034089475826614304960000011782333037726615188_);fill:#00B2DB;}
	.st6{clip-path:url(#SVGID_00000034089475826614304960000011782333037726615188_);fill:#00B1DA;}
</style>
<g>
	<path class="st0" d="M764.2,396.7c-8.6-8.2-14.9-14.1-19.3-18c-1.9-1.7-6.8-6.2-13.4-12.4c-2-1.8-3.6-3.4-4.7-4.4
		c3.3-3,8-7.2,13.5-12.3c3.3-3,6-5.5,9.4-8.6c5.4-5,13.1-12,22.9-21c-0.3,24.1-0.2,34.7,0,39.4c0,0.9,0.2,4.5-0.1,9.3
		c-0.1,2.3-0.3,5.1-1,8.7c-0.4,2.4-1.2,5.5-2.5,8.9C768.2,389.2,766.6,392.8,764.2,396.7"/>
	<path class="st0" d="M741.7,290.5c-6.7-5.7-13.4-11.5-20.1-17.2c-0.1-0.1-0.4-0.2-0.7-0.2c-0.4,0-0.6,0.1-0.7,0.2
		c-0.1,0.1-0.2,0.1-0.2,0.2c0,17.2-0.1,34.4-0.3,51.6c0,0.4,0,1.4,0,1.7c0.1,0.1,0.2,0.2,0.3,0.3c0.2,0.1,0.4,0.1,0.6,0.1
		c0.2,0,0.3,0,0.6-0.1c0.3-0.1,0.4-0.3,0.5-0.5c5.5-5,9.8-9,12.8-11.8c5.7-5.3,6.1-5.7,12.1-11.3c4.6-4.3,6.1-5.6,10.8-10
		c3-2.8,3.8-3.6,6-5.6c4-3.7,7.2-6.7,9.4-8.6c0-5.8,0-11.6,0-17.4c0-7.4,0-15.4,0-22.8h-13.5c0,0.1,0,0.2,0,0.2h0v-10.8
		c-1.8,0-3.5,0-4.9,0.1c-0.8,0-3.3,0-5.5,0c-0.7,0-1.3,0-2.6,0c-1.3,0-1.3,0-1.4,0c-2-0.1-3.5-1-3.8-1.2c-1.1-0.7-1.8-1.4-2-1.7
		c-1-1.3-1.4-2.5-1.5-2.8c-0.1-0.4-0.4-1.6-0.1-3.1c0.2-1.4,0.9-2.4,1.1-2.7c0.1-0.1,0.3-0.5,0.7-0.9c1.6-1.7,14.8-13.9,15.7-14.7
		c-0.9-2.1-1.9-3.9-2.7-5.4c-1.1-1.8-2.7-4.4-5-7.1c-0.6-0.7-1-1.2-1.4-1.6c-4.4,3.9-8.9,7.8-13.5,11.8c-2.1,1.8-4.2,3.6-6.3,5.4
		c-0.2,0.2-0.5,0.5-1,0.8c-1.2,0.7-2.2,1-2.8,1.1c-0.6,0.1-1.6,0.3-2.9,0.1c-1.9-0.3-3.2-1.3-4-1.8c-0.3-0.2-0.5-0.4-0.8-0.7
		c-1-1-1.4-2.1-1.6-2.8c-0.1-0.3-0.2-0.7-0.3-1.2c0-1.5,0-3,0-4.6c0-3.8,0-7.6,0-11.3h7.1l0,14.8c0,0.1,0,0.1,0,0.2
		c0.1,0.3,0.7,0.4,1.1,0.3c0.2,0,0.4-0.1,0.4-0.1c0.1-0.1,0.2-0.2,0.2-0.2c0.2-0.2,7.6-6.5,19.3-16.5c-0.5-0.5-1.3-1.1-2.3-1.8
		c-3.6-2.6-6.8-4.3-8.8-5.2c-3.7-1.7-7.1-2.8-9.7-3.4c-2.8-0.7-5.3-1-7.2-1.2c-0.3,0-0.8-0.1-1.2-0.1c-0.3,0-1-0.1-2-0.1
		c-0.7,0-1.6,0-2.6,0c0,84.5,0,169.1,0,253.6c0.9,0,2.2,0.1,3.7,0.1c3.8,0,7,0.1,10.9-0.4c3.7-0.4,6.5-1.1,8.1-1.5
		c4.1-1.1,7.3-2.4,9-3.2c1.8-0.8,6.3-3,11.5-7c4.3-3.3,7.6-6.8,10-9.8c-10-9.5-20-18.9-30.2-28.3c-0.1-0.1-1.2-1.1-2.6-2.4
		c-1.5-1.4-2.8-2.6-3.6-3.4c-0.3-0.3-0.6-0.6-0.8-0.8c-0.4-0.4-0.5-0.5-0.8-0.7c-0.3-0.3-0.5-0.6-0.7-0.8c-0.2-0.3-0.7-1-1.1-2
		c-0.2-0.7-0.3-1.2-0.4-1.5c0-0.3-0.1-1.1,0-1.9c0.1-0.4,0.3-2.1,1.6-3.6c0.3-0.4,0.6-0.7,0.7-0.8c3.6-3.2,7.5-6.4,10.9-9.8
		c4.5-4.5,4.1-3.8,13.2-12.1c5.1-4.7,10-9.2,11.3-10.4c3.3-3.1,6.1-5.7,10.4-9.6c2-1.8,3.6-3.2,4.7-4.2v-21.5
		c-30.4,28.3-40.5,37.7-41.8,38.8c-1.5,1.3-2.3,2-3.4,3.2c-0.1,0.1-0.5,0.5-1.2,1.1c-0.5,0.5-1,0.9-1.7,1.3
		c-0.8,0.4-1.4,0.7-1.7,0.7c-1.4,0.4-2.5,0.3-3.1,0.3c-0.2,0-1.5-0.1-2.7-0.6c-0.2-0.1-0.5-0.2-0.5-0.2c-0.3-0.1-0.8-0.4-1.3-0.8
		c-0.9-0.6-1.4-1.3-1.5-1.6c-0.4-0.5-0.6-1-0.8-1.4c-0.2-0.5-0.5-1.2-0.6-2.1c-0.1-0.7,0-1.2,0-1.3c0.2-2.9,0.3-37.7,0.2-44.3
		c0-2.6,0.2-5.2,0-7.8c0-0.2,0-0.7,0-1.3c0.1-1.1,0.4-1.8,0.5-2.1c0.1-0.3,0.6-1.2,1.4-2.2c0.3-0.3,1.6-1.6,3.8-2.3
		c0.7-0.2,2.4-0.6,4.3,0c1.5,0.4,2.6,1.2,3.7,2c0.3,0.2,0.7,0.6,1.6,1.4c0.6,0.5,1,0.9,1.2,1c1.2,1,2.4,2,3.5,3
		c1.7,1.5,6.6,5.7,13.4,11.5c-0.7,0.9-1.5,1.7-2.2,2.6C743.3,288.7,742.5,289.6,741.7,290.5 M739.1,255.9c-0.2-0.3-0.6-0.8-0.9-1.3
		c-0.3-0.5-0.7-1.2-0.9-2.2c-0.2-1.1-0.1-2.1,0.1-2.7c0.1-0.5,0.4-1.9,1.5-3.3c1.8-2.3,4.5-2.8,5.2-2.9c5,0,10.1,0,15.1-0.1v-0.3h0
		v0.3v7.2c-5.1,0-7.7,0-9,0c-0.5,0-0.9,0-1.4,0c-0.1,0-2.7-0.1-3.9,0.1c-0.1,0-0.5,0.1-0.5,0.2c0,0.1,0.1,0.1,0.1,0.2
		c0.1,0.1,0.1,0.1,0.2,0.2c0.3,0.3,0.7,0.6,1,1c3.1,3.1,6.4,6.1,9.8,9.2c1.3,1.1,2.5,2.2,3.8,3.3c0,3.3,0,6.6-0.1,9.9
		c0,0-0.1,0.1-0.1,0.1l0,0c0,0,0.1-0.1,0.1-0.1c-0.2-0.2-10.1-9.5-10.4-9.7C748.7,264.8,739.3,256.1,739.1,255.9"/>
	<g>
		<defs>
			<rect id="SVGID_1_" x="654.2" y="170.8" width="105.1" height="223.4"/>
		</defs>
		<clipPath id="SVGID_00000018954849025486135050000014574183100102730679_">
			<use xlink:href="#SVGID_1_"  style="overflow:visible;"/>
		</clipPath>
		<path style="clip-path:url(#SVGID_00000018954849025486135050000014574183100102730679_);fill:#43B667;" d="M654.3,221
			c1.7,0,3.8,0,5.4,0c3.1,0,6.2-0.2,9.3,0.1c0.1,0,0.2,0,0.3,0c0.3,0,0.4,0,0.6-0.1c0.1,0,0.1-0.1,0.2-0.3c-0.2-0.2-0.5-0.5-0.7-0.6
			c-5.1-4.7-10.1-9.4-15.1-14.2V221z"/>
		<path style="clip-path:url(#SVGID_00000018954849025486135050000014574183100102730679_);fill:#43B667;" d="M654.3,265.5
			l15.6-14.6c0,0,0.1-0.1,0.2-0.2c0-0.1-0.1-0.2-0.2-0.2c-0.1-0.1-0.3-0.1-0.3-0.1c-0.5-0.1-0.8-0.1-1,0c-0.5,0.1-5.9,0.1-14.3,0.1
			V265.5z"/>
		<path style="clip-path:url(#SVGID_00000018954849025486135050000014574183100102730679_);fill:#43B667;" d="M701.3,170.8
			L701.3,170.8C701.3,170.8,701.3,170.8,701.3,170.8h-46.7c0,0-0.1,0-0.1,0c0,0-0.1,0-0.1,0.1c0,0,0,0.1,0,0.1c0,0,0,0.1,0,0.1
			c0,4.2,0,9.3,0,13.5c0,3.3,0,8.3,0,11.6c1.1,1.1,2.6,2.4,3.7,3.5c5.5,5.2,11.1,10.4,16.6,15.6c0.3,0.2,0.6,0.5,1,0.9
			c0.4,0.4,0.6,0.8,0.8,1.2c0.1,0.3,0.5,0.9,0.7,1.6c0.5,1.8,0.1,3.4,0.1,3.7c-0.4,1.6-1.3,2.6-1.7,3.1c-0.3,0.3-1.6,1.7-3.7,2.3
			c-0.9,0.3-1.6,0.3-2.1,0.3c-5.1,0-10.1,0-15.2-0.1v15.1c2.6,0,5.5,0,8.1,0c2,0,4.9,0,6.8,0c0.1,0,0.3,0,0.6,0
			c0.2,0,0.8,0.1,1.5,0.2c1,0.2,1.8,0.6,2,0.7c1,0.5,1.6,1.1,1.8,1.3c0.1,0.1,0.5,0.5,1,1.2c0.5,0.8,0.8,1.5,0.9,1.7
			c0.3,0.7,0.4,1.4,0.4,1.6c0,0.3,0.1,1,0,1.9c-0.1,0.4-0.3,1.8-1.4,3.2c-0.2,0.3-0.4,0.5-0.8,0.9c-1.3,1.3-2.3,2.2-2.5,2.3
			c-1,0.8-5.7,5.1-18.2,17c0.1,0.1,0.2,0.1,0.3,0.2c-0.1-0.1-0.3-0.2-0.3-0.2v15.7c22.7,19.9,29.8,26.8,31.5,29c2,2.5,4.8,4.2,7,6.4
			c0,0,0.2,0.2,0.6,0.4c0.1,0,0.6,0.2,1-0.1c0.1-0.1,0.2-0.2,0.2-0.3c-0.2-31.6-0.3-52.1-0.3-52.4c0,0,0-0.2,0-0.5
			c0-0.3,0-0.3,0-0.4c-0.1-0.3-0.6-0.4-1-0.3c-0.3,0.1-0.5,0.2-0.5,0.3c-9,7.6-12.5,10.6-13.8,11.8c-1,0.8-1.6,1.3-2.7,2.3
			c-0.8,0.6-1.5,1.2-2.3,2c-0.5,0.5-1,0.8-1.3,1.1c-1.5-1.8-3.1-3.6-4.6-5.4c0.6-0.5,1.5-1.3,2.6-2.3c2.6-2.2,3.7-3.1,8-6.8
			c3.9-3.3,6.2-5.3,7-6c1.2-1,2.2-1.9,2.9-2.5c0.2-0.2,0.5-0.4,0.9-0.6c0.4-0.2,1.5-0.8,3.1-1c0.3,0,1.2-0.1,2.3,0
			c1.7,0.3,3,1,3.5,1.3c0.2,0.2,0.4,0.4,0.4,0.4c0.4,0.3,0.7,0.6,0.9,0.8c0.4,0.4,0.9,1.1,1.4,2.1c0.4,1,0.5,1.8,0.6,2.4
			c0.1,0.6,0.1,1.1,0,1.5c0,3.9,0.1,7.1,0.1,9.2c0,1.7,0,2.8,0,7c0,3.5,0,6.2,0,7.7c0,1.9,0,3.8,0.1,8.1c0,0.3,0,5.5,0.1,8.8
			c0,2.6,0,6.5,0.1,11.3c0,0.2,0,0.5,0,0.9c0,0.2-0.1,0.8-0.3,1.5c-0.1,0.4-0.5,1.4-1.2,2.3c-0.1,0.1-0.3,0.4-0.8,0.8
			c-1.4,1.2-2.9,1.7-3.3,1.8c-2.3,0.7-4.2,0.2-4.7,0.1c-1.8-0.5-3-1.5-3.5-1.9c-9.2-8.1-23.6-21.9-23.6-21.9
			c-2.8-2.7-5.7-5.3-5.7-5.3c-1.8-1.7-3.4-3-4.4-3.9v22.6c12.3,11,24.6,21.9,36.9,32.9c0.3,0.3,0.8,0.8,1.2,1.3
			c0.2,0.2,0.6,0.8,0.9,1.6c0.2,0.4,0.7,1.7,0.5,3.4c-0.2,1.7-1,2.8-1.5,3.4c-0.5,0.8-1.1,1.3-1.6,1.6c-4,3.6-7.9,7.3-11.9,10.9
			c-2.2,2-4.4,4-6.5,5.9c0.8,0.6,1.8,1.4,3.2,2.3c0.6,0.4,3.3,2.1,7.4,3.8c5,2,9.1,2.8,10,2.9c0.8,0.1,3.8,0.6,7,0.6
			c0.8,0,5.7,0,5.8,0l1.6,0l0.4-223.3H701.3z M701.6,196.9v2.5c0,0.2,0,0.4-0.1,0.7c0,0.1,0,0.4-0.1,0.7c0,0.1-0.2,0.7-0.5,1.5
			c-0.2,0.4-0.4,0.7-0.5,0.9c-0.5,0.8-1.1,1.3-1.4,1.6c-0.1,0.1-0.4,0.3-0.9,0.6c-0.2,0.1-0.4,0.2-0.5,0.3c-0.1,0.1-0.4,0.2-0.8,0.4
			c-0.7,0.3-1.3,0.4-1.4,0.5c-0.3,0.1-1.1,0.2-2.1,0.2c-0.7,0-2.1-0.1-3.7-0.9c-0.7-0.4-1.3-0.8-1.6-1.2c-0.7-0.6-1.8-1.4-3-2.5
			c-1.4-1.2-2.4-2.1-2.9-2.4c-2.4-2.1-7.7-6.5-7.7-6.5c-1.8-1.5-4.2-3.5-7.3-6.2c0.3-0.4,0.5-0.7,0.7-0.9c1.4-1.7,2.2-2.5,3.6-4.2
			c0.1-0.2,0.2-0.3,0.3-0.4c7,5.9,14.1,11.9,21.1,17.8c0.1,0.1,0.2,0.2,0.4,0.2c0.3,0.1,0.5,0,0.6,0c0.2,0,0.4-0.1,0.5-0.3
			c0.1-0.1,0.1-0.3,0.1-0.3c0-0.4,0-6.4,0-14.7l7.2,0v0c0,0.5,0,1,0,1v1.3c0,0.9,0,1.2,0,3.2c0,2.4,0,2.1,0,3.7
			C701.6,194.7,701.6,195.1,701.6,196.9"/>
		<path style="clip-path:url(#SVGID_00000018954849025486135050000014574183100102730679_);fill:#43B667;" d="M654.3,332.8
			c12.8,11.3,18.5,16.4,21.2,18.9c0.8,0.8,4.1,3.9,8.7,7.9c1,0.8,1.7,1.5,2.3,1.9c0.1,0,0.1,0.1,0.1,0.1c0,0,0,0,0,0c0,0,0,0,0,0.1
			c-0.1,0.1-0.4,0.3-0.4,0.4c0,0,0,0-0.2,0.1c-0.3,0.3-0.4,0.3-0.4,0.4c-0.4,0.3-1.1,1-1.8,1.7c-0.1,0.1-0.5,0.4-1.1,1
			c0,0-0.7,0.7-1.3,1.2c-0.9,0.8-6.5,6-14.3,13.1c-0.6-0.6-1.3-1.4-2.1-2.4c-0.6-0.8-1.8-2.2-3-4c-2-3.1-3.3-5.9-3.9-7.2
			c-1.6-3.9-2.5-7.3-2.9-9.5c-0.1-0.7-0.7-4.1-0.8-7.6c0-0.5,0-1.9,0-2.5c0-1.6,0-2.4,0-4.3c0-1.7,0-3.3,0-5V332.8z"/>
	</g>
	<g>
		<defs>
			<rect id="SVGID_00000091726427286981479360000007030987119673382075_" x="706.8" y="239.1" width="52.6" height="154.5"/>
		</defs>
		<clipPath id="SVGID_00000084491657453285075120000009420667802047645593_">
			<use xlink:href="#SVGID_00000091726427286981479360000007030987119673382075_"  style="overflow:visible;"/>
		</clipPath>
		<path style="clip-path:url(#SVGID_00000084491657453285075120000009420667802047645593_);fill:#67489D;" d="M706.7,424.4
			c0.9,0,2.2,0.1,3.7,0.1c3.8,0,7,0.1,10.9-0.4c3.7-0.4,6.5-1.1,8.1-1.5c4.1-1.1,7.3-2.4,9-3.2c1.8-0.8,6.4-3,11.6-7
			c4.3-3.3,7.6-6.8,10.1-9.8c-10-9.5-20.1-18.9-30.3-28.3c-0.1-0.1-1.2-1.1-2.7-2.4c-1.5-1.4-2.8-2.6-3.7-3.4
			c-0.3-0.3-0.6-0.6-0.8-0.8c-0.4-0.3-0.5-0.4-0.8-0.7c-0.3-0.3-0.5-0.6-0.7-0.8c-0.2-0.3-0.7-1-1.1-2c-0.2-0.7-0.3-1.2-0.4-1.5
			c0-0.4-0.1-1.1,0-1.9c0.1-0.4,0.3-2.1,1.7-3.6c0.3-0.4,0.6-0.7,0.7-0.8c3.6-3.2,7.5-6.4,10.9-9.8c4.5-4.5,4.1-3.8,13.3-12.1
			c5.2-4.7,10-9.2,11.4-10.4c3.4-3.1,6.2-5.7,10.4-9.6c2-1.8,3.6-3.2,4.7-4.2v-21.5c-30.6,28.3-40.7,37.7-41.9,38.8
			c-1.5,1.3-2.3,2-3.4,3.2c-0.1,0.1-0.5,0.5-1.2,1.1c-0.6,0.5-1,0.9-1.7,1.3c-0.8,0.4-1.4,0.7-1.7,0.7c-1.4,0.4-2.5,0.3-3.1,0.3
			c-0.2,0-1.5-0.1-2.7-0.6c-0.2-0.1-0.5-0.2-0.5-0.2c-0.3-0.1-0.8-0.4-1.4-0.8c-0.9-0.7-1.4-1.3-1.5-1.6c-0.4-0.5-0.6-1-0.8-1.4
			c-0.2-0.5-0.5-1.2-0.6-2.1c-0.1-0.7,0-1.2,0-1.3c0.2-2.9,0.3-37.7,0.2-44.3c0-2.6,0.2-5.2,0-7.8c0-0.2,0-0.7,0-1.4
			c0.1-1.1,0.4-1.8,0.6-2.1c0.1-0.3,0.6-1.2,1.4-2.2c0.3-0.3,1.6-1.6,3.8-2.3c0.7-0.2,2.4-0.6,4.3,0c1.6,0.4,2.6,1.2,3.7,2
			c0.3,0.2,0.7,0.6,1.6,1.4c0.6,0.5,1,0.9,1.2,1c1.2,1,2.4,2,3.5,3c1.7,1.5,6.6,5.7,13.5,11.5c4.3-3.5,8.7-7,13-10.4
			c-0.2-0.2-10.2-9.5-10.4-9.7c-0.2-0.2-9.6-8.9-9.8-9.1c-0.3-0.3-0.6-0.8-0.9-1.3c-0.3-0.6-0.7-1.2-0.9-2.2
			c-0.2-1.1-0.1-2.1,0.1-2.7c0.1-0.5,0.5-1.9,1.6-3.3c1.9-2.3,4.5-2.8,5.2-2.9c5.1,0,10.1,0,15.2-0.1v-15c-1.8,0-3.5,0-4.9,0.1
			c-0.8,0-3.3,0-5.6,0c-0.7,0-1.3,0-2.6,0c-1.4,0-1.3,0-1.4,0c-2-0.1-3.5-1-3.8-1.2c-1.1-0.7-1.8-1.4-2-1.7c-1-1.3-1.4-2.5-1.5-2.8
			c-0.1-0.4-0.4-1.6-0.1-3.1c0.3-1.4,0.9-2.4,1.1-2.7c0.1-0.1,0.3-0.5,0.7-0.9c1.6-1.7,14.9-13.9,15.7-14.7
			c-0.9-2.1-1.9-3.9-2.8-5.4c-1.1-1.8-2.7-4.3-5-7.1c-0.6-0.7-1.1-1.2-1.4-1.6c-4.5,3.9-9,7.8-13.6,11.8c-2.1,1.8-4.2,3.6-6.3,5.4
			c-0.2,0.2-0.6,0.5-1,0.8c-1.2,0.7-2.2,1-2.8,1.1c-0.6,0.1-1.6,0.3-2.9,0.1c-1.9-0.3-3.3-1.3-4-1.8c-0.3-0.2-0.5-0.4-0.8-0.7
			c-1-1-1.4-2.1-1.6-2.8c-0.1-0.3-0.2-0.7-0.3-1.2c0-1.5,0-3,0-4.6c0-3.8,0-7.6,0-11.3h7.1c0,4.9,0,9.9,0,14.8c0,0.1,0,0.1,0,0.2
			c0.1,0.3,0.7,0.4,1.1,0.3c0.2,0,0.4-0.1,0.4-0.1c0.1-0.1,0.2-0.2,0.2-0.2c0.2-0.2,7.6-6.5,19.3-16.5c-0.5-0.5-1.3-1.1-2.3-1.8
			c-3.6-2.7-6.8-4.3-8.8-5.3c-3.7-1.7-7.1-2.8-9.7-3.4c-2.8-0.7-5.3-1-7.3-1.2c-0.3,0-0.8-0.1-1.2-0.1c-0.3,0-1-0.1-2-0.1
			c-0.7,0-1.6,0-2.6,0C706.7,255.3,706.7,339.9,706.7,424.4"/>
		<path style="clip-path:url(#SVGID_00000084491657453285075120000009420667802047645593_);fill:#67489D;" d="M764.4,396.7
			c-8.7-8.2-15-14.1-19.3-18c-1.9-1.7-6.8-6.2-13.5-12.4c-2-1.8-3.6-3.4-4.7-4.4c3.4-3,8-7.2,13.6-12.3c3.3-3,6-5.5,9.5-8.6
			c5.5-5,13.2-12,23-21c-0.3,24.1-0.2,34.7,0,39.4c0,0.9,0.2,4.5,0,9.3c-0.1,2.3-0.3,5.1-1,8.7c-0.5,2.4-1.2,5.5-2.5,8.9
			C768.3,389.2,766.8,392.8,764.4,396.7"/>
		<path style="clip-path:url(#SVGID_00000084491657453285075120000009420667802047645593_);fill:#67489D;" d="M772.9,279.3
			c-2.1,1.9-5.4,4.9-9.4,8.6c-2.2,2-3,2.8-6,5.6c-4.7,4.4-6.1,5.7-10.8,10c-6,5.6-6.5,6.1-12.2,11.3c-3,2.7-7.4,6.8-12.8,11.8
			c-0.1,0.1-0.3,0.3-0.5,0.5c-0.2,0.1-0.4,0.1-0.6,0.1c-0.2,0-0.4,0-0.6-0.1c-0.2-0.1-0.3-0.2-0.3-0.3c0-0.4,0-1.4,0-1.7
			c0.2-17.3,0.3-34.5,0.3-51.6c0.1-0.1,0.1-0.1,0.2-0.2c0.1,0,0.3-0.2,0.7-0.2c0.3,0,0.6,0.2,0.7,0.2c6.7,5.8,13.4,11.5,20.2,17.2
			c0.8-0.9,1.6-1.9,2.4-2.8c0.7-0.9,1.5-1.7,2.2-2.6c4.3-3.5,8.7-6.9,13-10.4c0-3.3,0-6.6,0.1-9.9c-1.3-1.1-2.5-2.2-3.8-3.3
			c-3.4-3.1-6.7-6.2-9.9-9.2c-0.3-0.3-0.7-0.6-1-1c0,0-0.1-0.1-0.2-0.1c0,0-0.1-0.1-0.1-0.2c0-0.2,0.4-0.2,0.5-0.2
			c1.2-0.2,3.7-0.1,3.9-0.1c0.5,0,0.9,0,1.4,0c1.4,0,3.9,0,9.1,0v-7.2c0-1.3,0-2.6,0-3.8h13.5c0,7.4,0,14.8,0,22.2
			C772.9,267.7,772.9,273.5,772.9,279.3"/>
		<path style="clip-path:url(#SVGID_00000084491657453285075120000009420667802047645593_);fill:#7E529E;" d="M759.4,221.4
			c-4.6,0-9.3,0.1-13.9,0.1c-0.2,0-0.4,0-0.6-0.1c-0.1,0-0.2-0.1-0.2-0.2c0,0,0-0.1,0-0.2c0.1-0.2,8-7.5,13-12.1
			c0.2,0.9,0.5,2,0.8,3.2c0.2,1,0.5,2.5,0.7,4.3C759.2,217.8,759.3,219.5,759.4,221.4"/>
	</g>
	<g>
		<path class="st4" d="M100.5,364.6v-4.1c0-0.6-0.3-1-0.9-1h-3.5c-0.6,0-1,0.3-1,1v4.1c0,0.6,0.4,0.9,1,0.9h3.5
			C100.3,365.5,100.5,365.3,100.5,364.6z"/>
		<path class="st4" d="M90.2,365.5c0.6,0,0.9-0.3,0.9-0.9v-4.1c0-0.6-0.3-1-0.9-1h-3.5c-0.6,0-0.9,0.3-0.9,1v4.1
			c0,0.6,0.3,0.9,0.9,0.9H90.2z"/>
		<path class="st4" d="M151.5,303.6h3.5c0.6,0,1-0.3,1-0.9v-4.1c0-0.6-0.4-1-1-1h-3.5c-0.6,0-0.9,0.3-0.9,1v4.1
			C150.6,303.3,150.8,303.6,151.5,303.6z"/>
		<path class="st4" d="M155.8,312.7c0-0.6-0.4-1-1-1h-3.2c-0.6,0-1,0.3-1,1v23.4c0,2.6-1.1,3.7-3.7,3.7h-8.2v0h-8.9V322
			c0-3.2-1.1-5.9-3.5-8.1c-2.3-2.3-5-3.4-8.3-3.4s-6.1,1.1-8.3,3.4c-2.3,2.2-3.4,4.9-3.4,8.1v26H84.3c-5.5,0-10.1-4.5-10.1-9.9
			c0-4.2,2.7-7.6,5.7-9.1l1.5-0.8c0.3-0.2,0.5-0.4,0.5-0.8c0-0.1-0.1-0.3-0.1-0.5l-1.5-2.9c-0.1-0.3-0.4-0.5-0.9-0.5
			c-0.1,0-0.3,0-0.4,0.1l-1.5,0.8c-4.5,2.3-8.5,7.3-8.5,13.7c0,4.2,1.5,7.7,4.4,10.6c3,2.9,6.6,4.4,10.7,4.4h24.8
			c1.4,0,2.6-1.1,2.6-2.5V322c0-3.5,3-6.4,6.6-6.4c3.6,0,6.6,2.9,6.6,6.4v20.4c0,1.4,1.2,2.6,2.6,2.6h8.9v0h10.6c5.4,0,9-3.4,9-8.8
			V312.7z"/>
		<path class="st4" d="M194.6,345.7v-20.6c0-4-1.5-7.5-4.4-10.3c-2.9-2.8-6.4-4.3-10.5-4.3c-4.1,0-7.6,1.5-10.5,4.3
			c-2.9,2.8-4.4,6.3-4.4,10.3v5.2c0,4,1.5,7.5,4.4,10.3c2.9,2.8,6.4,4.3,10.5,4.3h9.7v0.8c0,4.6-4,8.5-8.7,8.5h-7.3
			c-0.6,0-0.9,0.3-0.9,0.9v3.3c0,0.6,0.3,0.9,0.9,0.9h7.3c3.7,0,7.1-1.3,9.8-4C193.2,352.6,194.6,349.4,194.6,345.7z M189.3,339.8
			h-9.7c-5.3,0-9.7-4.4-9.7-9.6v-5.2c0-5.3,4.5-9.6,9.7-9.6c5.3,0,9.7,4.4,9.7,9.6V339.8z"/>
		<path class="st4" d="M243.2,297.6c-0.6,0-0.9,0.3-0.9,1v4.1c0,0.6,0.3,0.9,0.9,0.9h3.5c0.6,0,1-0.3,1-0.9v-4.1c0-0.6-0.4-1-1-1
			H243.2z"/>
		<path class="st4" d="M233.8,297.6c-0.6,0-1,0.3-1,1v4.1c0,0.6,0.3,0.9,1,0.9h3.5c0.6,0,0.9-0.3,0.9-0.9v-4.1c0-0.6-0.3-1-0.9-1
			H233.8z"/>
		<path class="st4" d="M316.2,336.1v-40.3c0-0.6-0.3-1-0.9-1H312c-0.6,0-0.9,0.3-0.9,1v40.3c0,2.5-1.1,3.7-3.7,3.7h-0.1h-6.1h-2.1
			h-1.5c-2.1,0-3.5-0.4-4.2-1.1c-0.4-0.3-0.6-0.9-0.6-1.7v-7.5c0-4.5-1.5-8.2-4.4-11.2c-3-3-6.7-4.4-11.2-4.4H264
			c0.8-7.5,4.9-11.2,12.2-11.2h5.9c0.6,0,0.9-0.3,0.9-1v-3.3c0-0.5-0.3-0.9-0.9-0.9h-5.9c-11.3,0-17.5,7.5-17.5,18.8
			c0,1.4,1.1,2.6,2.6,2.6h15.8c6.4,0,10.5,4.4,10.5,10.6v6.5c0,2.6-1.3,3.8-3.9,3.8h-34.6v0h-1.5c-2,0-3.5-0.4-4.2-1.1
			c-0.4-0.4-0.6-1-0.6-1.7v-24.3c0-0.6-0.3-1-0.9-1h-3.3c-0.6,0-0.9,0.3-0.9,1V336c0,2.5-1.1,3.8-3.7,3.8h-8.8v0h-10.7v-27
			c0-0.6-0.4-1-1-1h-3.2c-0.6,0-1,0.3-1,1v34.7c0,4.6-2.1,6.7-6.8,6.7h-3.5c-0.6,0-0.9,0.3-0.9,0.9v3.3c0,0.6,0.3,0.9,0.9,0.9h3.5
			c7.5,0,12.1-4.4,12.1-11.8v-2.6h7.3v0h12.1c2.8,0,4.9-0.8,6.5-2.4l0.3-0.3c0,0.1,0.1,0.1,0.1,0.1c1.7,1.7,4.4,2.6,7.8,2.6h2.4v0
			h32.9c3,0,5.2-1,6.8-2.7l0.1,0.1c1.7,1.7,4.2,2.6,7.7,2.6h0.7h2.1h6.1C312.7,344.9,316.2,341.5,316.2,336.1z"/>
		<path class="st4" d="M336.9,334.1h3.3c0.6,0,0.9-0.3,0.9-0.9v-31.8c0-0.6-0.3-1-0.9-1h-3.3c-0.6,0-0.9,0.3-0.9,1v31.8
			C336,333.8,336.3,334.1,336.9,334.1z"/>
		<path class="st4" d="M345.2,361.4v-1.5c0-0.4-0.3-0.6-0.7-0.6h-7.2v-4.1c0-1.3,1.1-2.4,2.5-2.4c1.1,0,1.9,0.6,2.3,1.5l0.2,0.6
			c0.1,0.3,0.3,0.4,0.6,0.4c0.1,0,0.2,0,0.4-0.1l1.3-0.6c0.3-0.1,0.5-0.3,0.5-0.6c0-0.1,0-0.2-0.1-0.3l-0.4-0.7
			c-0.9-2.1-2.5-3.2-4.9-3.2c-2.9,0-5.3,2.4-5.3,5.2v4.1h-2c-0.4,0-0.6,0.2-0.6,0.6v1.5c0,0.4,0.2,0.7,0.6,0.7h12
			C344.9,362.1,345.2,361.8,345.2,361.4z"/>
		<path class="st4" d="M358.1,294.9h-3.3c-0.6,0-0.9,0.3-0.9,1v37.3c0,4.6-2.1,6.7-6.8,6.7h-20.9c-0.6,0-0.9,0.3-0.9,0.9v3.2
			c0,0.6,0.3,1,0.9,1H347c7.5,0,12-4.4,12-11.8v-37.3C359,295.2,358.7,294.9,358.1,294.9z"/>
		<path class="st4" d="M374.6,294.9h-3.4c-0.6,0-0.9,0.3-0.9,0.9V344c0,0.6,0.3,0.9,0.9,0.9h3.4c0.6,0,0.8-0.3,0.8-0.9v-48.2
			C375.5,295.1,375.2,294.9,374.6,294.9z"/>
		<path class="st4" d="M461.3,351.5h-3.5c-0.6,0-0.9,0.3-0.9,1v4c0,0.6,0.3,1,0.9,1h3.5c0.6,0,0.9-0.3,0.9-1v-4
			C462.2,351.8,461.9,351.5,461.3,351.5z"/>
		<path class="st4" d="M470.6,351.5h-3.5c-0.6,0-1,0.3-1,1v4c0,0.6,0.4,1,1,1h3.5c0.6,0,1-0.3,1-1v-4
			C471.6,351.8,471.3,351.5,470.6,351.5z"/>
		<path class="st4" d="M558.4,297.6c-0.6,0-1,0.3-1,1v4.1c0,0.6,0.4,0.9,1,0.9h3.5c0.6,0,0.9-0.3,0.9-0.9v-4.1c0-0.6-0.3-1-0.9-1
			H558.4z"/>
		<path class="st4" d="M567.8,297.6c-0.6,0-0.9,0.3-0.9,1v4.1c0,0.6,0.3,0.9,0.9,0.9h3.5c0.6,0,1-0.3,1-0.9v-4.1c0-0.6-0.4-1-1-1
			H567.8z"/>
		<path class="st4" d="M613.7,294.9h-3.3c-0.6,0-0.9,0.3-0.9,1v40.3c0,2.5-1.1,3.7-3.7,3.7h-0.1h-6.1v0H596c-2,0-3.5-0.4-4.2-1.1
			c-0.4-0.3-0.6-0.9-0.6-1.7v-41.2c0-0.6-0.3-1-0.9-1H587c-0.6,0-0.9,0.3-0.9,1V336c0,2.6-1.2,3.8-3.7,3.8h-8.6v0h-1.5
			c-2,0-3.5-0.4-4.2-1.1c-0.4-0.4-0.6-1-0.6-1.7v-24.3c0-0.6-0.3-1-0.9-1h-3.3c-0.6,0-0.9,0.3-0.9,1V336c0,2.5-1.1,3.8-3.7,3.8
			h-10.1v0h-14.6l6.9-14.5c0.1-0.3,0.2-0.7,0.2-1V324c-0.3-3.7-2-6.9-5.2-9.6c-3.1-2.7-6.7-4.1-10.6-4.1c-4,0-7.5,1.5-10.7,4.4
			c-3,2.6-4.7,5.7-5.2,9.1v0.4c0,0.3,0.1,0.8,0.2,1.1l6.9,14.5h-14.2h-2.1h-1.5c-2,0-3.5-0.4-4.2-1.1c-0.4-0.3-0.6-0.9-0.6-1.7
			v-41.2c0-0.6-0.3-1-0.9-1h-3.3c-0.6,0-0.9,0.3-0.9,1V336c0,2.6-1.2,3.8-3.7,3.8h-8.6v0h-1.5c-2,0-3.5-0.4-4.2-1.1
			c-0.4-0.4-0.6-1-0.6-1.7v-24.3c0-0.6-0.4-1-1-1h-3.2c-0.6,0-1,0.3-1,1V336c0,2.6-1.1,3.8-3.7,3.8h-8.6v0H447c-2.3,0-4.1-1-4.6-2.8
			c1.1-2.2,1.7-4.4,1.7-6.8V325c0-4-1.5-7.5-4.4-10.3c-2.9-2.8-6.4-4.3-10.4-4.3c-4.1,0-7.6,1.5-10.5,4.3c-2.9,2.8-4.4,6.3-4.4,10.3
			v14.8h-2.5c-5.4,0-10,4.4-10,9.8v9.4c0,0.6,0.3,0.9,0.9,0.9h3.3c0.6,0,1-0.3,1-0.9v-9.4c0-2.6,2.1-4.6,4.7-4.6h17.4
			c3.9,0,7.3-1.3,10.2-4c1.8,2.6,4.7,4,8.5,4h4.6v0h8.5c2.7,0,4.9-0.8,6.6-2.4c0.1-0.1,0.2-0.3,0.2-0.3c0,0.1,0.1,0.1,0.1,0.1
			c1.7,1.7,4.3,2.6,7.8,2.6h2.4v0h6.8c2.8,0,4.9-0.8,6.5-2.4c0.1-0.1,0.2-0.2,0.3-0.3c1.8,1.7,4.2,2.7,7.8,2.7h0.6v0h48.3v0h10
			c2.7,0,4.9-0.8,6.5-2.4l0.3-0.3c0,0.1,0.1,0.1,0.1,0.1c1.7,1.7,4.4,2.6,7.8,2.6h2.4v0h6.8c2.8,0,4.9-0.8,6.5-2.4
			c0.1-0.1,0.2-0.2,0.3-0.3c1.8,1.7,4.2,2.7,7.8,2.7h0.6v0h8.2c5.4,0,9-3.4,9-8.8v-40.3C614.7,295.2,614.4,294.9,613.7,294.9z
			 M439,330.3c0,5.3-4.4,9.5-9.7,9.5h-9.7V325c0-5.2,4.4-9.5,9.7-9.5c5.3,0,9.7,4.3,9.7,9.5V330.3z M522.2,339.8l-7.5-15.9
			c0.5-2.1,1.8-4.1,3.7-5.8c2.1-1.7,4.4-2.6,6.8-2.6c2.5,0,4.9,0.8,6.9,2.5c2.1,1.6,3.3,3.5,3.7,5.8l-7.5,16H522.2z"/>
		<path class="st4" d="M89.1,379.8l0,19.3c0,0.8,0,7.8,0.1,8.8H89c-0.3-0.7-3.4-6.7-3.8-7.4l-10.9-20.7l-5.2,0l0.1,32.7l3.5,0
			l0-19.6c0-1.2-0.1-8-0.2-8.7h0.4c0.3,0.8,3.4,6.8,3.7,7.4l11,20.9l5.1,0l-0.1-32.7L89.1,379.8z"/>
		<path class="st4" d="M119.6,409.7c-1.8,0-2.5-1.5-2.5-3.8l0-11.5c0-5.3-3.2-7.7-8.6-7.7c-5.2,0-7.6,3-8.5,4.2l2.6,2.1
			c0.7-1.2,2.4-3.1,5.7-3.1c3.3,0,5.3,1.2,5.3,5.4l0,2.8c-8.9-0.1-14.4,2.6-14.4,8.2c0,3.5,2.6,6.8,7.3,6.8c4.3,0,6.3-2,7.5-3.4h0.2
			c0.6,1.7,2.1,3.1,4.6,3.1c0.5,0,1-0.1,1.3-0.3l0-2.7H119.6z M107.6,410c-2.9,0-4.5-1.8-4.5-4.1c0-3.8,4.8-5.3,10.8-5.1l0,5.7
			C112.7,408.2,110.4,410,107.6,410z"/>
		<path class="st4" d="M134.1,409.5c-2.2,0-3.7-1.2-3.7-4l0-15.5l6.9,0l0-2.9l-6.9,0l0-6.7l-2.4,0l-1.1,6.6l-3.7,0.7l0,2.3l3.7,0
			l0,15.7c0,4.8,2.3,7,6.4,7c3,0,4.7-0.6,5.6-1.2l-1-2.9C137.3,409,136.1,409.5,134.1,409.5z"/>
		
			<rect x="144.9" y="387" transform="matrix(1 -1.672953e-03 1.672953e-03 1 -0.6685 0.2459)" class="st4" width="3.6" height="25.4"/>
		<path class="st4" d="M146.4,376.9c-1.4,0-2.6,1.1-2.6,2.7c0,1.5,1.2,2.6,2.6,2.6c1.5,0,2.7-1.1,2.7-2.6
			C149.1,378,147.9,376.9,146.4,376.9z"/>
		<path class="st4" d="M166.2,386.5c-7.6,0-10.5,5.4-10.5,13.2c0,7.8,2.7,13.1,10.3,13.1c7.6,0,10.6-5.5,10.6-13.3
			C176.5,391.7,173.9,386.5,166.2,386.5z M166.2,409.6c-4.8,0-6.8-3.3-6.9-10.2c0-6.6,1.8-9.8,6.5-9.8c4.9,0,6.9,3.3,6.9,10.1
			C172.8,406.4,171.1,409.6,166.2,409.6z"/>
		<path class="st4" d="M193.7,386.4c-3.9,0-6.5,2.3-7.2,3.2h-0.2l-0.7-2.7l-2.7,0l0,25.4l3.6,0l0-18.2c0.9-2.5,3.3-4.5,6.4-4.5
			c3.5,0,5.4,2.1,5.4,6l0,16.7l3.6,0l0-17.5C201.7,389.2,198.7,386.4,193.7,386.4z"/>
		<path class="st4" d="M228.2,409.5c-1.8,0-2.5-1.5-2.5-3.8l0-11.5c0-5.3-3.2-7.7-8.6-7.7c-5.2,0-7.6,3-8.5,4.2l2.6,2.1
			c0.7-1.2,2.3-3.1,5.7-3.1c3.3,0,5.3,1.2,5.3,5.4l0,2.8c-8.9-0.1-14.4,2.6-14.4,8.2c0,3.5,2.6,6.8,7.3,6.8c4.3,0,6.3-2,7.5-3.4h0.2
			c0.6,1.7,2.1,3.1,4.6,3.1c0.5,0,1-0.1,1.3-0.3l0-2.7H228.2z M216.1,409.8c-2.9,0-4.5-1.8-4.5-4.1c0-3.8,4.8-5.3,10.8-5.1l0,5.7
			C221.2,408.1,219,409.8,216.1,409.8z"/>
		<path class="st4" d="M241.1,409.5c-1.9,0-2.6-1-2.6-3.2l0-29.4l-3.6,0l0,30.4c0,3.3,1.7,5.4,5.1,5.4c1,0,2.2-0.1,3.1-0.6l0-3.1
			C242.7,409.2,242,409.5,241.1,409.5z"/>
		<path class="st4" d="M270.5,386.4c-5.6,0-10.7,3.8-10.7,13c0,9.5,3.9,13.2,11.1,13.1c3.6,0,6.2-1,7.9-2.3l-1.6-2.8
			c-1.1,0.9-3.3,1.9-5.8,1.9c-5,0-7.6-2.4-8-8.6l16,0c0.2-1.6,0.3-3.1,0.3-4.4C279.7,390.3,276.5,386.4,270.5,386.4z M276.1,397.7
			l-12.6,0c0.3-6.1,3.5-8.2,6.7-8.2c4.1,0,5.9,2.4,5.9,6.8C276.1,396.6,276.1,397.2,276.1,397.7z"/>
		<polygon class="st4" points="290.5,408.9 290.5,379.5 286.8,379.5 286.8,412.2 304.4,412.2 304.4,408.8 		"/>
		<path class="st4" d="M318.3,386.3c-5.6,0-10.7,3.8-10.7,13c0,9.5,3.9,13.2,11.1,13.1c3.6,0,6.2-1,7.9-2.3l-1.6-2.8
			c-1.1,0.9-3.3,1.9-5.8,1.9c-5,0-7.6-2.4-8-8.6l16,0c0.2-1.6,0.3-3.1,0.3-4.4C327.5,390.2,324.3,386.3,318.3,386.3z M323.9,397.7
			l-12.6,0c0.3-6.1,3.5-8.2,6.7-8.2c4.1,0,5.9,2.4,5.9,6.8C323.9,396.5,323.9,397.1,323.9,397.7z"/>
		<path class="st4" d="M352.9,409.3c-1.8,0-2.5-1.5-2.5-3.8l0-11.5c0-5.3-3.2-7.7-8.6-7.7c-5.2,0-7.6,2.9-8.5,4.2l2.6,2.1
			c0.7-1.2,2.4-3.1,5.7-3.1c3.3,0,5.3,1.2,5.3,5.4l0,2.8c-8.9-0.1-14.4,2.6-14.4,8.2c0,3.5,2.6,6.8,7.3,6.8c4.3,0,6.3-2,7.5-3.4h0.2
			c0.6,1.7,2.1,3.1,4.6,3.1c0.5,0,1-0.1,1.3-0.3l0-2.7H352.9z M340.8,409.6c-2.9,0-4.5-1.8-4.5-4.1c0-3.8,4.8-5.3,10.8-5.1l0,5.7
			C345.9,407.9,343.7,409.6,340.8,409.6z"/>
		<path class="st4" d="M369.3,386.2c-2.9,0-5.2,1.4-6.3,3.2h-0.2l-0.8-2.8l-2.7,0l0,25.4l3.6,0l0-18.9c1.2-2.3,3.7-3.3,6.2-3.3
			c0.9,0,1.9,0.1,2.8,0.4l0-3.8C371.3,386.3,370.5,386.2,369.3,386.2z"/>
		<path class="st4" d="M386.8,386.1c-3.9,0-6.5,2.3-7.2,3.2h-0.2l-0.7-2.7l-2.7,0l0,25.4l3.6,0l0-18.2c0.9-2.5,3.3-4.5,6.4-4.5
			c3.5,0,5.4,2.1,5.4,6l0,16.7l3.6,0l0-17.5C394.8,388.9,391.8,386.1,386.8,386.1z"/>
		
			<rect x="403.7" y="386.6" transform="matrix(1 -1.514953e-03 1.514953e-03 1 -0.6045 0.6148)" class="st4" width="3.6" height="25.4"/>
		<path class="st4" d="M405.2,376.5c-1.4,0-2.6,1.1-2.6,2.7c0,1.5,1.2,2.6,2.6,2.6c1.5,0,2.7-1.1,2.7-2.6
			C407.9,377.6,406.8,376.5,405.2,376.5z"/>
		<path class="st4" d="M426.7,386.1c-3.9,0-6.5,2.3-7.2,3.2h-0.2l-0.7-2.7l-2.7,0l0,25.4l3.6,0l0-18.2c0.9-2.5,3.3-4.5,6.4-4.5
			c3.5,0,5.4,2.1,5.4,6l0,16.7l3.6,0l0-17.5C434.7,388.8,431.7,386.1,426.7,386.1z"/>
		<path class="st4" d="M453.3,386.3c-8.3,0-12.2,5.5-12.2,13.6c0,8.6,4.4,11.9,9.6,11.9c3.2,0,5.4-1.3,6.1-2h0.2l0,2.3
			c0,4.5-1.8,6.8-6.4,6.8c-3.4,0-5.4-1.1-6.6-2.4l-2.1,2.9c1,1,3.5,2.7,8.3,2.7c6.3,0,10.3-3.3,10.3-10l0-24.5
			C458.9,386.9,456.5,386.3,453.3,386.3z M451.6,408.6c-3.6,0-6.9-1.9-6.9-9.2c0-6.7,3.2-9.9,8.1-10c1.6,0,3.1,0.3,4.1,0.7l0,16
			C455.7,407.7,453.6,408.6,451.6,408.6z"/>
		<path class="st4" d="M493.3,382c3.4,0,5.3,1,6.7,2.2l2.3-2.9c-1.1-0.9-3.7-2.7-8.6-2.7c-8.6,0-13.3,6.4-13.2,17.1
			c0,10.1,3.9,16.6,12.8,16.6c4.6,0,7.4-1.4,8.9-2.8l-2-2.7c-1.2,1.1-3,2-6.3,2c-6.2,0-9.5-4.6-9.5-13.5
			C484.2,386.2,487.7,382,493.3,382z"/>
		<path class="st4" d="M517.1,386c-5.6,0-10.7,3.8-10.7,13c0,9.5,3.9,13.2,11.1,13.1c3.6,0,6.2-1,7.9-2.3l-1.6-2.8
			c-1.1,0.9-3.3,1.9-5.8,1.9c-5,0-7.6-2.4-8-8.6l16,0c0.2-1.6,0.3-3.1,0.3-4.4C526.2,389.9,523,386,517.1,386z M522.6,397.4l-12.6,0
			c0.3-6.1,3.5-8.2,6.7-8.2c4.1,0,5.9,2.4,5.9,6.8C522.7,396.2,522.7,396.8,522.6,397.4z"/>
		<path class="st4" d="M543.6,385.9c-3.9,0-6.5,2.3-7.2,3.2h-0.2l-0.7-2.7l-2.7,0l0,25.4l3.6,0l0-18.2c0.9-2.5,3.3-4.5,6.4-4.5
			c3.5,0,5.4,2.1,5.4,6l0,16.7l3.6,0l0-17.5C551.7,388.6,548.7,385.9,543.6,385.9z"/>
		<path class="st4" d="M567.4,408.8c-2.2,0-3.7-1.2-3.7-4l0-15.5l6.9,0l0-2.9l-6.9,0l0-6.7l-2.5,0l-1.1,6.6l-3.7,0.7l0,2.3l3.7,0
			l0,15.7c0,4.8,2.3,7,6.4,7c3,0,4.7-0.6,5.6-1.2l-1-2.9C570.6,408.3,569.4,408.8,567.4,408.8z"/>
		<path class="st4" d="M586.3,385.9c-5.6,0-10.7,3.8-10.7,13c0,9.5,3.9,13.2,11.1,13.1c3.6,0,6.2-1,7.9-2.3L593,407
			c-1.1,0.9-3.3,1.9-5.8,1.9c-5,0-7.6-2.4-8-8.6l16,0c0.2-1.6,0.3-3.1,0.3-4.4C595.5,389.8,592.3,385.9,586.3,385.9z M591.9,397.3
			l-12.6,0c0.3-6.1,3.5-8.2,6.7-8.2c4.1,0,5.9,2.4,5.9,6.8C591.9,396.1,591.9,396.7,591.9,397.3z"/>
		<path class="st4" d="M612.1,385.9c-2.9,0-5.2,1.4-6.3,3.2h-0.2l-0.8-2.8l-2.7,0l0,25.4l3.6,0l0-18.9c1.2-2.3,3.7-3.3,6.2-3.3
			c0.9,0,1.9,0.1,2.8,0.4l0-3.8C614.1,386,613.3,385.9,612.1,385.9z"/>
		<path class="st4" d="M206,274.7c-0.6,0-0.9,0.4-0.9,1v4.2c0,0.6,0.3,0.9,0.9,0.9h3.6c0.6,0,0.9-0.3,0.9-0.9v-4.2
			c0-0.6-0.3-1-0.9-1H206z"/>
		<path class="st4" d="M215.6,274.7c-0.6,0-1,0.4-1,1v4.2c0,0.6,0.4,0.9,1,0.9h3.5c0.6,0,0.9-0.3,0.9-0.9v-4.2c0-0.6-0.3-1-0.9-1
			H215.6z"/>
		<path class="st4" d="M203.5,267.9h25.1c1.4,0,2.6-1.1,2.6-2.6V236c0-3.6,3-6.6,6.6-6.6c3.6,0,6.6,3,6.6,6.6v21
			c0,1.4,1.2,2.6,2.6,2.6h11.6v0h8.2c2.8,0,5-0.8,6.6-2.4c0.1-0.1,0.2-0.3,0.2-0.4c0,0.1,0.1,0.1,0.1,0.1c1.7,1.7,4.4,2.6,7.9,2.6
			h2.4v0h35.5c7.6,0,12.1-4.6,12.1-12.1v-6.9c0-9.6-5.4-16.5-14.6-16.5c-5.1,0-11.3,3.4-18.3,9.9V209c0-0.6-0.3-1-0.9-1h-3.3
			c-0.6,0-1.1,0.4-1.1,1v45.4h-11.2v0h-1.6c-2.1,0-3.5-0.4-4.2-1.1c-0.4-0.4-0.6-1-0.6-1.8v-25c0-0.6-0.4-1-1-1h-3.3
			c-0.6,0-1,0.4-1,1v24c0,2.6-1.1,3.9-3.7,3.9h-8.3v0h-9V236c0-3.3-1.1-6.1-3.5-8.3c-2.4-2.4-5.1-3.5-8.4-3.5
			c-3.3,0-6.1,1.1-8.4,3.5c-2.4,2.3-3.4,5.1-3.4,8.3v26.8h-22.3c-5.6,0-10.2-4.6-10.2-10.2c0-4.4,2.7-7.9,5.8-9.4l1.5-0.8
			c0.4-0.2,0.5-0.4,0.5-0.8c0-0.1-0.1-0.3-0.1-0.5l-1.5-3c-0.1-0.3-0.4-0.5-0.9-0.5c-0.1,0-0.3,0-0.4,0.1l-1.5,0.8
			c-4.6,2.4-8.6,7.6-8.6,14.1c0,4.3,1.5,7.9,4.5,10.9C195.8,266.4,199.3,267.9,203.5,267.9z M298.8,241.1c2.6-3.2,5.6-6,9.3-8.3
			c3.6-2.3,6.6-3.5,9.1-3.5c3.7,0,6.4,1.6,8,4.6c0.9,1.9,1.4,4.1,1.4,6.6v6.9c0,4.8-2.1,6.9-6.9,6.9h-20.8V241.1z"/>
		<path class="st4" d="M271.6,217h3.5c0.6,0,1-0.3,1-0.9v-4.2c0-0.6-0.4-1-1-1h-3.5c-0.6,0-0.9,0.4-0.9,1v4.2
			C270.6,216.7,270.9,217,271.6,217z"/>
		<path class="st4" d="M397.1,208h-3.4c-0.6,0-0.9,0.4-0.9,1v41.5c0,2.6-1.1,3.8-3.8,3.9H389h-8.3v0h-8.3v-15.2
			c0-4.1-1.5-7.7-4.4-10.6c-2.9-2.9-6.5-4.4-10.6-4.4c-4.1,0-7.8,1.5-10.7,4.4c-2.9,2.9-4.4,6.5-4.4,10.6v5.4
			c0,4.1,1.5,7.7,4.4,10.6c2.9,2.9,6.6,4.4,10.7,4.4h9.8v0.9c0,4.7-4.1,8.8-8.8,8.8h-7.4c-0.6,0-0.9,0.3-0.9,0.9v3.4
			c0,0.6,0.4,0.9,0.9,0.9h7.4c3.8,0,7.1-1.4,9.9-4.1c2.8-2.8,4.2-6.1,4.2-9.9v-0.9h10.8v0h5.8c5.5,0,9.1-3.5,9.1-9.1V209
			C398,208.4,397.8,208,397.1,208z M367.1,254.4h-9.8c-5.4,0-9.9-4.5-9.9-9.9v-5.4c0-5.4,4.5-9.9,9.9-9.9c5.4,0,9.8,4.5,9.8,9.9
			V254.4z"/>
		<path class="st4" d="M410.5,259.6h3.4c0.6,0,0.9-0.3,0.9-0.9V209c0-0.6-0.3-0.9-0.9-0.9h-3.4c-0.6,0-0.9,0.3-0.9,0.9v49.7
			C409.5,259.3,409.8,259.6,410.5,259.6z"/>
		<path class="st4" d="M448.3,217h3.5c0.6,0,1-0.3,1-0.9v-4.2c0-0.6-0.4-1-1-1h-3.5c-0.6,0-0.9,0.4-0.9,1v4.2
			C447.4,216.7,447.6,217,448.3,217z"/>
		<path class="st4" d="M436.9,274.4h3.6c7.6,0,12.2-4.6,12.2-12.1v-2.7h10.9v0H495c5.6,0,9.1-3.5,9.1-9.1v-6.8
			c0-4.6-1.4-8.5-4.4-11.6c-3-3.1-6.8-4.6-11.4-4.6H475c0.8-7.7,4.9-11.6,12.4-11.6h5.9c0.6,0,0.9-0.3,0.9-0.9v-3.4
			c0-0.6-0.3-0.9-0.9-0.9h-5.9c-11.5,0-17.7,7.8-17.7,19.5c0,1.4,1.2,2.6,2.6,2.6h16.1c6.4,0,10.6,4.5,10.6,10.9v6.8
			c0,2.6-1.3,3.9-3.9,3.9h-35v0h-7.3v-27.8c0-0.6-0.4-1-1-1h-3.4c-0.6,0-0.9,0.4-0.9,1v35.8c0,4.8-2.1,6.9-6.9,6.9h-3.6
			c-0.6,0-0.9,0.3-0.9,0.9v3.4C435.9,274.1,436.2,274.4,436.9,274.4z"/>
		<path class="st4" d="M508.5,274.4h3.6c7.6,0,12.2-4.6,12.2-12.1v-2.7h7.3h3.5h24c3.9,0,7.4-1.4,10.4-4.1c1.8,2.6,4.8,4.1,8.6,4.1
			h2.6v0h8.3c5.5,0,9.1-3.5,9.1-9.1V209c0-0.6-0.3-1-0.9-1h-3.4c-0.6,0-0.9,0.4-0.9,1v41.5c0,2.6-1.1,3.8-3.8,3.9h-0.1h-6.5v0h-5.4
			c-2.4,0-4.1-0.9-4.6-2.9c1.1-2.2,1.7-4.5,1.7-7v-5.4c0-4.1-1.5-7.8-4.4-10.7c-2.9-2.9-6.5-4.4-10.6-4.4c-4.1,0-7.7,1.5-10.6,4.4
			c-2.9,2.9-4.4,6.6-4.4,10.7v15.2h-8.9h-3.5h-7.3v-27.8c0-0.6-0.4-1-1-1H520c-0.6,0-1,0.4-1,1v35.8c0,4.8-2.1,6.9-6.9,6.9h-3.6
			c-0.6,0-0.9,0.3-0.9,0.9v3.4C507.6,274.2,507.9,274.4,508.5,274.4z M549.3,239.2c0-5.4,4.4-9.9,9.9-9.9c5.4,0,9.9,4.4,9.9,9.9v5.4
			c0,5.4-4.4,9.9-9.9,9.9h-9.9V239.2z"/>
		<path class="st4" d="M613.8,208h-3.4c-0.6,0-0.9,0.3-0.9,0.9v49.7c0,0.6,0.3,0.9,0.9,0.9h3.4c0.6,0,0.9-0.3,0.9-0.9V209
			C614.7,208.3,614.4,208,613.8,208z"/>
	</g>
	<g>
		<defs>
			<rect id="SVGID_00000150797452980846804250000013948830441290930334_" x="654.2" y="170.8" width="105.1" height="68.3"/>
		</defs>
		<clipPath id="SVGID_00000139283496424046653860000009988108458109019782_">
			<use xlink:href="#SVGID_00000150797452980846804250000013948830441290930334_"  style="overflow:visible;"/>
		</clipPath>
		<path style="clip-path:url(#SVGID_00000139283496424046653860000009988108458109019782_);fill:#00B2DB;" d="M706.7,424.4
			c0.9,0,2.2,0.1,3.7,0.1c3.8,0,7,0.1,10.9-0.4c3.7-0.4,6.5-1.1,8.1-1.5c4.1-1.1,7.3-2.4,9-3.2c1.8-0.8,6.4-3,11.6-7
			c4.3-3.3,7.6-6.8,10.1-9.8c-10-9.5-20.1-18.9-30.3-28.3c-0.1-0.1-1.2-1.1-2.7-2.4c-1.5-1.4-2.8-2.6-3.7-3.4
			c-0.3-0.3-0.6-0.6-0.8-0.8c-0.4-0.3-0.5-0.4-0.8-0.7c-0.3-0.3-0.5-0.6-0.7-0.8c-0.2-0.3-0.7-1-1.1-2c-0.2-0.7-0.3-1.2-0.4-1.5
			c0-0.4-0.1-1.1,0-1.9c0.1-0.4,0.3-2.1,1.7-3.6c0.3-0.4,0.6-0.7,0.7-0.8c3.6-3.2,7.5-6.4,10.9-9.8c4.5-4.5,4.1-3.8,13.3-12.1
			c5.2-4.7,10-9.2,11.4-10.4c3.4-3.1,6.2-5.7,10.4-9.6c2-1.8,3.6-3.2,4.7-4.2v-21.5c-30.6,28.3-40.7,37.7-41.9,38.8
			c-1.5,1.3-2.3,2-3.4,3.2c-0.1,0.1-0.5,0.5-1.2,1.1c-0.6,0.5-1,0.9-1.7,1.3c-0.8,0.4-1.4,0.7-1.7,0.7c-1.4,0.4-2.5,0.3-3.1,0.3
			c-0.2,0-1.5-0.1-2.7-0.6c-0.2-0.1-0.5-0.2-0.5-0.2c-0.3-0.1-0.8-0.4-1.4-0.8c-0.9-0.7-1.4-1.3-1.5-1.6c-0.4-0.5-0.6-1-0.8-1.4
			c-0.2-0.5-0.5-1.2-0.6-2.1c-0.1-0.7,0-1.2,0-1.3c0.2-2.9,0.3-37.7,0.2-44.3c0-2.6,0.2-5.2,0-7.8c0-0.2,0-0.7,0-1.4
			c0.1-1.1,0.4-1.8,0.6-2.1c0.1-0.3,0.6-1.2,1.4-2.2c0.3-0.3,1.6-1.6,3.8-2.3c0.7-0.2,2.4-0.6,4.3,0c1.6,0.4,2.6,1.2,3.7,2
			c0.3,0.2,0.7,0.6,1.6,1.4c0.6,0.5,1,0.9,1.2,1c1.2,1,2.4,2,3.5,3c1.7,1.5,6.6,5.7,13.5,11.5c4.3-3.5,8.7-7,13-10.4
			c-0.2-0.2-10.2-9.5-10.4-9.7c-0.2-0.2-9.6-8.9-9.8-9.1c-0.3-0.3-0.6-0.8-0.9-1.3c-0.3-0.6-0.7-1.2-0.9-2.2
			c-0.2-1.1-0.1-2.1,0.1-2.7c0.1-0.5,0.5-1.9,1.6-3.3c1.9-2.3,4.5-2.8,5.2-2.9c5.1,0,10.1,0,15.2-0.1v-15c-1.8,0-3.5,0-4.9,0.1
			c-0.8,0-3.3,0-5.6,0c-0.7,0-1.3,0-2.6,0c-1.4,0-1.3,0-1.4,0c-2-0.1-3.5-1-3.8-1.2c-1.1-0.7-1.8-1.4-2-1.7c-1-1.3-1.4-2.5-1.5-2.8
			c-0.1-0.4-0.4-1.6-0.1-3.1c0.3-1.4,0.9-2.4,1.1-2.7c0.1-0.1,0.3-0.5,0.7-0.9c1.6-1.7,14.9-13.9,15.7-14.7
			c-0.9-2.1-1.9-3.9-2.8-5.4c-1.1-1.8-2.7-4.3-5-7.1c-0.6-0.7-1.1-1.2-1.4-1.6c-4.5,3.9-9,7.8-13.6,11.8c-2.1,1.8-4.2,3.6-6.3,5.4
			c-0.2,0.2-0.6,0.5-1,0.8c-1.2,0.7-2.2,1-2.8,1.1c-0.6,0.1-1.6,0.3-2.9,0.1c-1.9-0.3-3.3-1.3-4-1.8c-0.3-0.2-0.5-0.4-0.8-0.7
			c-1-1-1.4-2.1-1.6-2.8c-0.1-0.3-0.2-0.7-0.3-1.2c0-1.5,0-3,0-4.6c0-3.8,0-7.6,0-11.3h7.1c0,4.9,0,9.9,0,14.8c0,0.1,0,0.1,0,0.2
			c0.1,0.3,0.7,0.4,1.1,0.3c0.2,0,0.4-0.1,0.4-0.1c0.1-0.1,0.2-0.2,0.2-0.2c0.2-0.2,7.6-6.5,19.3-16.5c-0.5-0.5-1.3-1.1-2.3-1.8
			c-3.6-2.7-6.8-4.3-8.8-5.3c-3.7-1.7-7.1-2.8-9.7-3.4c-2.8-0.7-5.3-1-7.3-1.2c-0.3,0-0.8-0.1-1.2-0.1c-0.3,0-1-0.1-2-0.1
			c-0.7,0-1.6,0-2.6,0C706.7,255.3,706.7,339.9,706.7,424.4"/>
		<path style="clip-path:url(#SVGID_00000139283496424046653860000009988108458109019782_);fill:#00B1DA;" d="M764.4,396.7
			c-8.7-8.2-15-14.1-19.3-18c-1.9-1.7-6.8-6.2-13.5-12.4c-2-1.8-3.6-3.4-4.7-4.4c3.4-3,8-7.2,13.6-12.3c3.3-3,6-5.5,9.5-8.6
			c5.5-5,13.2-12,23-21c-0.3,24.1-0.2,34.7,0,39.4c0,0.9,0.2,4.5,0,9.3c-0.1,2.3-0.3,5.1-1,8.7c-0.5,2.4-1.2,5.5-2.5,8.9
			C768.3,389.2,766.8,392.8,764.4,396.7"/>
		<path style="clip-path:url(#SVGID_00000139283496424046653860000009988108458109019782_);fill:#00B1DA;" d="M772.9,279.3
			c-2.1,1.9-5.4,4.9-9.4,8.6c-2.2,2-3,2.8-6,5.6c-4.7,4.4-6.1,5.7-10.8,10c-6,5.6-6.5,6.1-12.2,11.3c-3,2.7-7.4,6.8-12.8,11.8
			c-0.1,0.1-0.3,0.3-0.5,0.5c-0.2,0.1-0.4,0.1-0.6,0.1c-0.2,0-0.4,0-0.6-0.1c-0.2-0.1-0.3-0.2-0.3-0.3c0-0.4,0-1.4,0-1.7
			c0.2-17.3,0.3-34.5,0.3-51.6c0.1-0.1,0.1-0.1,0.2-0.2c0.1,0,0.3-0.2,0.7-0.2c0.3,0,0.6,0.2,0.7,0.2c6.7,5.8,13.4,11.5,20.2,17.2
			c0.8-0.9,1.6-1.9,2.4-2.8c0.7-0.9,1.5-1.7,2.2-2.6c4.3-3.5,8.7-6.9,13-10.4c0-3.3,0-6.6,0.1-9.9c-1.3-1.1-2.5-2.2-3.8-3.3
			c-3.4-3.1-6.7-6.2-9.9-9.2c-0.3-0.3-0.7-0.6-1-1c0,0-0.1-0.1-0.2-0.1c0,0-0.1-0.1-0.1-0.2c0-0.2,0.4-0.2,0.5-0.2
			c1.2-0.2,3.7-0.1,3.9-0.1c0.5,0,0.9,0,1.4,0c1.4,0,3.9,0,9.1,0v-7.2c0-1.3,0-2.6,0-3.8h13.5c0,7.4,0,14.8,0,22.2
			C772.9,267.7,772.9,273.5,772.9,279.3"/>
		<path style="clip-path:url(#SVGID_00000139283496424046653860000009988108458109019782_);fill:#00B2DB;" d="M759.4,221.4
			c-4.6,0-9.3,0.1-13.9,0.1c-0.2,0-0.4,0-0.6-0.1c-0.1,0-0.2-0.1-0.2-0.2c0,0,0-0.1,0-0.2c0.1-0.2,8-7.5,13-12.1
			c0.2,0.9,0.5,2,0.8,3.2c0.2,1,0.5,2.5,0.7,4.3C759.2,217.8,759.3,219.5,759.4,221.4"/>
	</g>
</g>
</svg>
